<svg width="16" height="16" viewBox="0 0 16 16" fill="none" xmlns="http://www.w3.org/2000/svg">
<path d="M14.1215 6.6056C12.9488 6.3122 12.3926 4.9694 13.0145 3.9335C13.3043 3.4511 13.217 3.0353 12.9299 2.7491L12.6509 2.4701C12.3647 2.1839 11.9489 2.0966 11.4665 2.3855C10.4297 3.0074 9.0869 2.4512 8.7944 1.2785C8.6585 0.7322 8.3021 0.5 7.8971 0.5H7.5029C7.0979 0.5 6.7424 0.7322 6.6056 1.2785C6.3122 2.4512 4.9694 3.0074 3.9335 2.3855C3.4511 2.0957 3.0344 2.183 2.7482 2.4692L2.4692 2.7482C2.183 3.0344 2.0957 3.4511 2.3855 3.9335C3.0074 4.9703 2.4512 6.3131 1.2785 6.6056C0.734 6.7415 0.5 7.097 0.5 7.5029V7.8971C0.5 8.3021 0.7322 8.6576 1.2785 8.7944C2.4512 9.0878 3.0074 10.4306 2.3855 11.4665C2.0957 11.9489 2.183 12.3647 2.4701 12.6509L2.7491 12.9299C3.0362 13.217 3.4529 13.3034 3.9335 13.0145C4.9703 12.3926 6.3131 12.9488 6.6056 14.1215C6.7415 14.6678 7.0979 14.9 7.5029 14.9H7.8971C8.3021 14.9 8.6576 14.6678 8.7944 14.1215C9.0878 12.9488 10.4306 12.3926 11.4665 13.0145C11.948 13.3034 12.3638 13.217 12.6509 12.9299L12.9299 12.6509C13.2161 12.3647 13.3034 11.9489 13.0145 11.4665C12.3926 10.4297 12.9488 9.0869 14.1215 8.7944C14.6678 8.6585 14.9 8.3021 14.9 7.8971V7.5029C14.9 7.097 14.666 6.7415 14.1215 6.6056Z" fill="#E0E0E0" stroke="#212121"/>
</svg>
