<svg width="16" height="21" viewBox="0 0 16 21" fill="none" xmlns="http://www.w3.org/2000/svg">
<path d="M7.34778 7.17396C7.39126 7.00004 7.38401 6.86236 7.32604 6.76091C7.26807 6.65946 7.15213 6.587 6.97821 6.54352C6.8043 6.50004 6.56517 6.4783 6.26082 6.4783H5.63039L5.82604 5.54352H7.71734L7.86952 4.93482C8.23184 3.51453 8.84053 2.34062 9.6956 1.41309C10.5652 0.471056 11.6231 4.17233e-05 12.8695 4.17233e-05C13.6231 4.17233e-05 14.2029 0.166709 14.6086 0.500042C15.0144 0.833375 15.1666 1.24642 15.0652 1.73917C14.9927 2.04352 14.8478 2.2899 14.6304 2.4783C14.4275 2.65222 14.1739 2.73917 13.8695 2.73917C13.5942 2.73917 13.4057 2.65946 13.3043 2.50004C13.2029 2.34062 13.1159 2.09425 13.0434 1.76091C12.971 1.42758 12.8768 1.17396 12.7608 1.00004C12.6449 0.826129 12.442 0.739173 12.1521 0.739173C11.5434 0.739173 11.0724 1.06526 10.7391 1.71743C10.4202 2.35511 10.1449 3.16671 9.913 4.15222C9.88401 4.23917 9.85502 4.36236 9.82604 4.52178L9.56517 5.54352H12.3478L12.1521 6.4783H10.6304C10.3115 6.4783 10.0579 6.50004 9.86952 6.54352C9.68111 6.587 9.52894 6.66671 9.413 6.78265C9.31155 6.8841 9.23908 7.03627 9.1956 7.23917L7.34778 15.4783C7.15937 16.3624 6.83329 17.174 6.36952 17.9131C5.92024 18.6667 5.35502 19.2682 4.67387 19.7174C3.97821 20.1812 3.20285 20.4131 2.34778 20.4131C1.60865 20.4131 1.03618 20.2464 0.630387 19.9131C0.210097 19.5942 0.0579232 19.1812 0.173865 18.674C0.246329 18.3696 0.391256 18.1232 0.608648 17.9348C0.811546 17.7609 1.05792 17.674 1.34778 17.674C1.63763 17.674 1.83329 17.7537 1.93473 17.9131C2.03618 18.0725 2.12314 18.3189 2.1956 18.6522C2.26807 18.9855 2.36227 19.2392 2.47821 19.4131C2.57966 19.587 2.78256 19.674 3.08691 19.674C3.66662 19.674 4.13039 19.3406 4.47821 18.674C4.82604 18.0073 5.13763 17.0798 5.413 15.8913L7.34778 7.17396ZM13.8086 16.4566C13.4173 16.4566 13.0839 16.3189 12.8086 16.0435C12.5332 15.7682 12.3955 15.4348 12.3955 15.0435C12.3955 14.6377 12.5332 14.3044 12.8086 14.0435C13.0839 13.7682 13.4173 13.6305 13.8086 13.6305C14.2144 13.6305 14.5477 13.7682 14.8086 14.0435C15.0839 14.3044 15.2216 14.6377 15.2216 15.0435C15.2216 15.4348 15.0839 15.7682 14.8086 16.0435C14.5477 16.3189 14.2144 16.4566 13.8086 16.4566Z" fill="#303030"/>
</svg>
